<?xml version="1.0" encoding="UTF-8" standalone="no"?>
<!-- Created with Inkscape (http://www.inkscape.org/) -->

<svg
   width="215.57201"
   height="43.391495"
   viewBox="0 0 57.036759 11.480667"
   version="1.1"
   id="svg1241"
   xmlns="http://www.w3.org/2000/svg"
   xmlns:svg="http://www.w3.org/2000/svg">
  <defs
     id="defs1238" />
  <g
     id="layer1"
     transform="translate(-98.249912,-174.90449)">
    <path
       class="st1"
       d="m 106.18584,182.44532 h -6.271251 c 0.08751,0.68149 0.387151,1.22774 0.896271,1.63875 0.50913,0.41366 1.14553,0.62049 1.90392,0.62049 0.92279,0 1.66791,-0.31024 2.23007,-0.93339 l 0.77164,0.90423 c -0.35002,0.40836 -0.7849,0.7186 -1.30463,0.93339 -0.51973,0.21479 -1.10045,0.32086 -1.74216,0.32086 -0.81672,0 -1.54063,-0.16706 -2.17174,-0.50383 -0.631101,-0.33411 -1.121665,-0.80346 -1.466385,-1.40804 -0.34472,-0.60194 -0.51708,-1.28342 -0.51708,-2.04181 0,-0.74778 0.167057,-1.42396 0.503822,-2.02589 0.334113,-0.60194 0.795508,-1.07129 1.384183,-1.40805 0.58868,-0.33411 1.2516,-0.50382 1.98877,-0.50382 0.73717,0 1.39744,0.16705 1.97551,0.50382 0.57807,0.33411 1.02886,0.80346 1.35502,1.40805 0.32616,0.60458 0.48791,1.29137 0.48791,2.07097 0.005,0.10872 -0.005,0.24926 -0.0239,0.42427 z m -5.47574,-2.60927 c -0.45079,0.40837 -0.71596,0.94401 -0.795511,1.60428 h 4.956011 c -0.0769,-0.65232 -0.34206,-1.18266 -0.7955,-1.59632 -0.45079,-0.41366 -1.01295,-0.6205 -1.68383,-0.6205 -0.66823,0 -1.22773,0.20418 -1.68117,0.61254 z"
       id="path6-5-9"
       style="fill:#fe5000;fill-opacity:1;stroke-width:0.265169" />
    <path
       class="st1"
       d="m 113.88901,178.8947 c 0.57807,0.56747 0.86711,1.40275 0.86711,2.50055 v 4.44689 h -1.4001 v -4.28779 c 0,-0.74778 -0.18031,-1.31259 -0.53829,-1.69178 -0.36063,-0.37919 -0.87506,-0.56746 -1.54594,-0.56746 -0.75838,0 -1.35501,0.22009 -1.79254,0.66292 -0.43753,0.44284 -0.65497,1.07659 -0.65497,1.90392 v 3.98019 h -1.4001 v -7.72703 h 1.34176 v 1.16674 c 0.28108,-0.39775 0.66293,-0.70535 1.14553,-0.91749 0.47996,-0.21478 1.02886,-0.32085 1.6414,-0.32085 0.97848,-0.003 1.75808,0.28373 2.33614,0.85119 z"
       id="path8-7-5"
       style="fill:#fe5000;fill-opacity:1;stroke-width:0.265169" />
    <path
       class="st1"
       d="m 123.62073,182.44532 h -6.2686 c 0.0875,0.68149 0.38714,1.22774 0.89627,1.63875 0.50912,0.41366 1.14288,0.62049 1.90126,0.62049 0.92279,0 1.66792,-0.31024 2.23008,-0.93339 l 0.77164,0.90423 c -0.35002,0.40836 -0.7849,0.7186 -1.30463,0.93339 -0.51973,0.21479 -1.10046,0.32086 -1.74217,0.32086 -0.81672,0 -1.54063,-0.16706 -2.17173,-0.50383 -0.63111,-0.33411 -1.11902,-0.80346 -1.46374,-1.40804 -0.34472,-0.60194 -0.51708,-1.28342 -0.51708,-2.04181 0,-0.74778 0.16706,-1.42396 0.50382,-2.02589 0.33412,-0.60194 0.79551,-1.07129 1.38419,-1.40805 0.58867,-0.33411 1.2516,-0.50382 1.98877,-0.50382 0.73717,0 1.39744,0.16705 1.97551,0.50382 0.57807,0.33411 1.02886,0.80346 1.35502,1.40805 0.32615,0.60193 0.48791,1.29137 0.48791,2.07097 0.003,0.10872 -0.008,0.24926 -0.0265,0.42427 z m -5.4731,-2.60926 c -0.45078,0.40836 -0.71595,0.944 -0.7955,1.60427 h 4.95601 c -0.0769,-0.65232 -0.34207,-1.18266 -0.79551,-1.59632 -0.45079,-0.41366 -1.01294,-0.6205 -1.68382,-0.6205 -0.67088,0 -1.23039,0.20418 -1.68118,0.61255 z"
       id="path10-9-3"
       style="fill:#fe5000;fill-opacity:1;stroke-width:0.265169" />
    <path
       class="st1"
       d="m 127.28007,178.39088 c 0.4773,-0.23335 1.05537,-0.35002 1.7342,-0.35002 v 1.35501 c -0.0769,-0.0106 -0.18561,-0.0159 -0.32085,-0.0159 -0.75838,0 -1.35236,0.2254 -1.78459,0.67884 -0.43223,0.45079 -0.64966,1.09515 -0.64966,1.93043 v 3.85026 h -1.4001 v -7.72438 h 1.34176 v 1.29667 c 0.24395,-0.44548 0.60193,-0.78755 1.07924,-1.0209 z"
       id="path12-7-1"
       style="fill:#fe5000;fill-opacity:1;stroke-width:0.265169" />
    <path
       class="st1"
       d="m 131.46709,185.59288 c -0.68944,-0.35002 -1.22773,-0.83528 -1.61223,-1.45843 -0.38449,-0.6205 -0.57542,-1.32585 -0.57542,-2.1134 0,-0.78755 0.19093,-1.49025 0.57542,-2.10544 0.3845,-0.61785 0.92014,-1.09781 1.61223,-1.44253 0.68944,-0.34472 1.47169,-0.51708 2.34675,-0.51708 0.89362,0 1.66791,0.19093 2.31758,0.57542 0.65232,0.3845 1.11371,0.91484 1.38418,1.59632 l -2.14256,1.0925 c -0.36064,-0.71065 -0.88567,-1.06333 -1.57511,-1.06333 -0.49587,0 -0.90688,0.1644 -1.23304,0.49587 -0.32616,0.33146 -0.48791,0.78755 -0.48791,1.37092 0,0.59398 0.16175,1.05803 0.48791,1.39214 0.32616,0.33411 0.73717,0.50382 1.23304,0.50382 0.68944,0 1.21447,-0.35532 1.57511,-1.06333 l 2.14256,1.0925 c -0.27312,0.68149 -0.73452,1.21183 -1.38418,1.59632 -0.65232,0.3845 -1.42396,0.57542 -2.31758,0.57542 -0.87506,-0.003 -1.65731,-0.17767 -2.34675,-0.52769 z"
       id="path14-7-5"
       style="fill:#fe5000;fill-opacity:1;stroke-width:0.265169" />
    <path
       class="st1"
       d="m 138.48612,175.16907 h 2.77102 v 10.81626 h -2.77102 z"
       id="path16-7-8"
       style="fill:#fe5000;fill-opacity:1;stroke-width:0.265169" />
    <path
       class="st1"
       d="m 148.97357,185.59288 c -0.68944,-0.35002 -1.22773,-0.83528 -1.61223,-1.45843 -0.38449,-0.6205 -0.57541,-1.32585 -0.57541,-2.1134 0,-0.78755 0.19092,-1.49025 0.57541,-2.10544 0.3845,-0.61785 0.92014,-1.09781 1.61223,-1.44253 0.68944,-0.34472 1.47169,-0.51708 2.34675,-0.51708 0.89362,0 1.66792,0.19093 2.31758,0.57542 0.65232,0.3845 1.11371,0.91484 1.38419,1.59632 l -2.14257,1.0925 c -0.36063,-0.71065 -0.88567,-1.06333 -1.57511,-1.06333 -0.49587,0 -0.90688,0.1644 -1.23304,0.49587 -0.32615,0.33146 -0.48791,0.78755 -0.48791,1.37092 0,0.59398 0.16176,1.05803 0.48791,1.39214 0.32616,0.33411 0.73717,0.50382 1.23304,0.50382 0.68944,0 1.21448,-0.35532 1.57511,-1.06333 l 2.14257,1.0925 c -0.27313,0.68149 -0.73452,1.21183 -1.38419,1.59632 -0.65232,0.3845 -1.42396,0.57542 -2.31758,0.57542 -0.87506,-0.003 -1.65731,-0.17767 -2.34675,-0.52769 z"
       id="path18-4-0"
       style="fill:#fe5000;fill-opacity:1;stroke-width:0.265169" />
    <path
       class="st1"
       d="m 144.15544,178.08594 c -0.93339,0 -1.68912,0.75573 -1.68912,1.68913 v 4.52113 c 0,0.9334 0.75573,1.68913 1.68912,1.68913 0.9334,0 1.68913,-0.75573 1.68913,-1.68913 v -4.52113 c 0,-0.9334 -0.75573,-1.68913 -1.68913,-1.68913 z"
       id="path20-3-0"
       style="fill:#fe5000;fill-opacity:1;stroke-width:0.265169" />
    <path
       class="st0"
       d="m 143.02848,179.7512 c 0,-0.15115 0.0292,-0.29434 0.0901,-0.42957 0.061,-0.13524 0.14054,-0.25191 0.24396,-0.35268 0.10342,-0.10076 0.22539,-0.18031 0.36328,-0.2413 0.13789,-0.0583 0.28638,-0.0902 0.44283,-0.0902 0.15115,0 0.29169,0.0292 0.42428,0.0902 0.13258,0.061 0.24925,0.14054 0.35267,0.2413 0.10342,0.10077 0.18562,0.21744 0.24396,0.35268 0.061,0.13523 0.0902,0.27842 0.0902,0.42957 0,0.15645 -0.0292,0.30229 -0.0902,0.43753 -0.061,0.13524 -0.14054,0.25191 -0.24396,0.35002 -0.10341,0.0981 -0.22274,0.17502 -0.35267,0.2307 -0.13259,0.0557 -0.27313,0.0848 -0.42428,0.0848 -0.15645,0 -0.30494,-0.0292 -0.44283,-0.0848 -0.13789,-0.0557 -0.25986,-0.13258 -0.36328,-0.2307 -0.10342,-0.0981 -0.18562,-0.21478 -0.24396,-0.35002 -0.061,-0.13524 -0.0901,-0.28108 -0.0901,-0.43753 z"
       id="path22-6-6"
       style="fill:#ffffff;fill-opacity:1;stroke-width:0.265169" />
  </g>
</svg>
